<svg xmlns="http://www.w3.org/2000/svg" xmlns:xlink="http://www.w3.org/1999/xlink" width="505" height="243" viewBox="0 0 505 243">
  <defs>
    <clipPath id="clip-path">
      <rect id="Rectángulo_34920" data-name="Rectángulo 34920" width="466.888" height="194.269" fill="none"/>
    </clipPath>
    <clipPath id="clip-path-3">
      <rect id="Rectángulo_34913" data-name="Rectángulo 34913" width="16.214" height="17.882" fill="none"/>
    </clipPath>
    <clipPath id="clip-path-4">
      <rect id="Rectángulo_34914" data-name="Rectángulo 34914" width="11.724" height="11.703" fill="none"/>
    </clipPath>
    <clipPath id="clip-path-6">
      <rect id="Rectángulo_34916" data-name="Rectángulo 34916" width="26.712" height="25.387" fill="none"/>
    </clipPath>
    <clipPath id="clip-path-7">
      <rect id="Rectángulo_34917" data-name="Rectángulo 34917" width="14.223" height="14.198" fill="none"/>
    </clipPath>
    <clipPath id="clip-path-8">
      <rect id="Rectángulo_34918" data-name="Rectángulo 34918" width="14.223" height="14.197" fill="none"/>
    </clipPath>
  </defs>
  <g id="Grupo_116344" data-name="Grupo 116344" transform="translate(-810 -6822)">
    <path id="Trazado_160242" data-name="Trazado 160242" d="M20,0H485a20,20,0,0,1,20,20V223a20,20,0,0,1-20,20H20A20,20,0,0,1,0,223V20A20,20,0,0,1,20,0Z" transform="translate(810 6822)" fill="#dff7f9"/>
    <path id="Trazado_160243" data-name="Trazado 160243" d="M9.236,6.486H5.918L4.27,16H2.9L4.548,6.486H1.23l.205-1.15H9.441ZM13,16a1.775,1.775,0,0,1-.051-.417l.022-.417a3.249,3.249,0,0,1-2.314.981,2.368,2.368,0,0,1-1.7-.663,2.006,2.006,0,0,1-.6-1.622,2.44,2.44,0,0,1,1.1-1.967,4.693,4.693,0,0,1,2.706-.707l1.384.007.088-.63a1.448,1.448,0,0,0-.275-1.124,1.326,1.326,0,0,0-1.044-.428,2.044,2.044,0,0,0-1.2.333,1.418,1.418,0,0,0-.641.919l-1.333.007a2.125,2.125,0,0,1,.542-1.234A3.153,3.153,0,0,1,10.906,8.2a3.951,3.951,0,0,1,1.545-.282,2.627,2.627,0,0,1,1.926.751,2.328,2.328,0,0,1,.579,1.915l-.645,3.926-.037.564a2.765,2.765,0,0,0,.088.8L14.348,16Zm-2.08-1.025a2.312,2.312,0,0,0,1.2-.3,3.051,3.051,0,0,0,.978-.883l.286-1.633-1-.007a3.8,3.8,0,0,0-1.919.4,1.457,1.457,0,0,0-.754,1.121,1.135,1.135,0,0,0,.26.927A1.238,1.238,0,0,0,10.92,14.975ZM21.072,9.284l-.623-.066a2.268,2.268,0,0,0-2.007,1.15L17.468,16H16.143L17.52,8.075,18.8,8.068l-.2.923a2.369,2.369,0,0,1,1.985-1.077,2.432,2.432,0,0,1,.63.11Zm.454,2.739a6.459,6.459,0,0,1,.7-2.252A3.658,3.658,0,0,1,23.5,8.357a2.954,2.954,0,0,1,1.644-.436,2.438,2.438,0,0,1,2.08,1.04l.264-.886H28.7l-1.318,7.756a3.856,3.856,0,0,1-1.23,2.428,3.466,3.466,0,0,1-2.512.868,3.567,3.567,0,0,1-1.542-.381,2.931,2.931,0,0,1-1.161-1l.754-.813a2.378,2.378,0,0,0,3.5.564,2.721,2.721,0,0,0,.868-1.582l.146-.7a3,3,0,0,1-2.263.938,2.33,2.33,0,0,1-1.285-.4,2.427,2.427,0,0,1-.846-1.091,4.461,4.461,0,0,1-.33-1.593A8.187,8.187,0,0,1,21.526,12.023Zm1.282.75a2.788,2.788,0,0,0,.363,1.62,1.37,1.37,0,0,0,1.161.6,2.4,2.4,0,0,0,2.043-1.163L27,10.2a1.665,1.665,0,0,0-1.589-1.127,2.056,2.056,0,0,0-1.769.878,4.573,4.573,0,0,0-.817,2.451Zm10,3.374a2.857,2.857,0,0,1-2.314-1.091,3.756,3.756,0,0,1-.7-2.717l.037-.315a5.273,5.273,0,0,1,.7-2.153,4.068,4.068,0,0,1,1.4-1.469,3.273,3.273,0,0,1,1.787-.472,2.52,2.52,0,0,1,1.919.813,3.343,3.343,0,0,1,.762,2.124,6.207,6.207,0,0,1-.029.952l-.081.608H31.106a2.677,2.677,0,0,0,.355,1.831,1.683,1.683,0,0,0,1.454.784,2.819,2.819,0,0,0,2.168-1.055l.762.645a3.486,3.486,0,0,1-1.285,1.124A3.643,3.643,0,0,1,32.805,16.146Zm.842-7.112a1.937,1.937,0,0,0-1.432.557,3.956,3.956,0,0,0-.97,1.721l3.853.007.029-.117a2.168,2.168,0,0,0-.3-1.534A1.4,1.4,0,0,0,33.647,9.035Zm7.009-2.878L40.32,8.075h1.443L41.58,9.123H40.144l-.828,4.929a1.719,1.719,0,0,0-.007.352.559.559,0,0,0,.623.571,3.8,3.8,0,0,0,.645-.073l-.1,1.106a3.606,3.606,0,0,1-.967.132,1.384,1.384,0,0,1-1.187-.582,2.252,2.252,0,0,1-.308-1.527l.806-4.907h-1.4L37.6,8.075H39l.337-1.919Z" transform="translate(878 6827)" fill="#12263f"/>
    <path id="Trazado_160244" data-name="Trazado 160244" d="M9.434,16H8.02L2.651,7.782V16H1.238V5.336H2.651L8.035,13.59V5.336h1.4Zm5.574.146a3.463,3.463,0,0,1-2.622-1.058,3.928,3.928,0,0,1-1.011-2.831v-.249a4.756,4.756,0,0,1,.45-2.106,3.514,3.514,0,0,1,1.26-1.45,3.167,3.167,0,0,1,1.754-.524,2.968,2.968,0,0,1,2.4,1.018,4.408,4.408,0,0,1,.857,2.915v.564H12.729a2.817,2.817,0,0,0,.685,1.893,2.153,2.153,0,0,0,1.666.721,2.36,2.36,0,0,0,1.216-.293,3.055,3.055,0,0,0,.872-.776l.828.645A3.328,3.328,0,0,1,15.007,16.146Zm-.168-7.1a1.807,1.807,0,0,0-1.377.6,2.9,2.9,0,0,0-.688,1.674h3.97v-.1a2.581,2.581,0,0,0-.557-1.6A1.7,1.7,0,0,0,14.839,9.042Zm8.005,6a1.952,1.952,0,0,0,1.267-.439,1.546,1.546,0,0,0,.6-1.1h1.282a2.457,2.457,0,0,1-.469,1.3,3.087,3.087,0,0,1-1.154.981,3.329,3.329,0,0,1-1.527.366,3.265,3.265,0,0,1-2.574-1.08,4.3,4.3,0,0,1-.956-2.955v-.227a4.771,4.771,0,0,1,.425-2.058,3.236,3.236,0,0,1,1.219-1.4,3.464,3.464,0,0,1,1.879-.5,3.178,3.178,0,0,1,2.216.8,2.853,2.853,0,0,1,.941,2.073H24.712a1.867,1.867,0,0,0-.582-1.263,1.811,1.811,0,0,0-1.293-.494,1.9,1.9,0,0,0-1.6.743,3.491,3.491,0,0,0-.568,2.15v.256a3.422,3.422,0,0,0,.564,2.109A1.906,1.906,0,0,0,22.844,15.041Zm7.961,1.106a3.463,3.463,0,0,1-2.622-1.058,3.928,3.928,0,0,1-1.011-2.831v-.249a4.756,4.756,0,0,1,.45-2.106,3.514,3.514,0,0,1,1.26-1.45,3.167,3.167,0,0,1,1.754-.524,2.968,2.968,0,0,1,2.4,1.018,4.408,4.408,0,0,1,.857,2.915v.564H28.528a2.817,2.817,0,0,0,.685,1.893,2.153,2.153,0,0,0,1.666.721,2.36,2.36,0,0,0,1.216-.293,3.055,3.055,0,0,0,.872-.776l.828.645A3.328,3.328,0,0,1,30.806,16.146Zm-.168-7.1a1.807,1.807,0,0,0-1.377.6,2.9,2.9,0,0,0-.688,1.674h3.97v-.1a2.581,2.581,0,0,0-.557-1.6A1.7,1.7,0,0,0,30.637,9.042ZM40.078,13.9a1,1,0,0,0-.414-.853,3.983,3.983,0,0,0-1.443-.524,6.822,6.822,0,0,1-1.633-.527,2.324,2.324,0,0,1-.894-.732,1.752,1.752,0,0,1-.289-1.011A2.056,2.056,0,0,1,36.229,8.6a3.218,3.218,0,0,1,2.106-.674,3.311,3.311,0,0,1,2.186.7,2.21,2.21,0,0,1,.839,1.78H40a1.223,1.223,0,0,0-.472-.959,1.77,1.77,0,0,0-1.19-.4,1.852,1.852,0,0,0-1.157.322,1.014,1.014,0,0,0-.417.842.822.822,0,0,0,.388.74,4.776,4.776,0,0,0,1.4.476,7.308,7.308,0,0,1,1.644.542,2.4,2.4,0,0,1,.934.758,1.864,1.864,0,0,1,.3,1.08,2.028,2.028,0,0,1-.85,1.7,3.564,3.564,0,0,1-2.2.641,3.991,3.991,0,0,1-1.685-.337,2.74,2.74,0,0,1-1.146-.941,2.268,2.268,0,0,1-.414-1.307h1.355a1.4,1.4,0,0,0,.546,1.08,2.117,2.117,0,0,0,1.344.4,2.185,2.185,0,0,0,1.234-.311A.956.956,0,0,0,40.078,13.9ZM44.67,16H43.315V8.075H44.67ZM43.206,5.973a.809.809,0,0,1,.2-.557.756.756,0,0,1,.6-.227.768.768,0,0,1,.6.227.8.8,0,0,1,.205.557.774.774,0,0,1-.205.549.782.782,0,0,1-.6.22.77.77,0,0,1-.6-.22A.782.782,0,0,1,43.206,5.973Zm3.3,6a4.642,4.642,0,0,1,.864-2.933,2.941,2.941,0,0,1,4.468-.157V4.75H53.2V16H51.951l-.066-.85a2.759,2.759,0,0,1-2.263,1,2.707,2.707,0,0,1-2.245-1.128,4.7,4.7,0,0,1-.868-2.944Zm1.355.154a3.515,3.515,0,0,0,.557,2.109A1.8,1.8,0,0,0,49.958,15a1.977,1.977,0,0,0,1.882-1.157V10.2a1.992,1.992,0,0,0-1.868-1.121,1.808,1.808,0,0,0-1.553.769A3.87,3.87,0,0,0,47.864,12.125ZM60.19,16a2.846,2.846,0,0,1-.19-.835,3.023,3.023,0,0,1-2.256.981,2.8,2.8,0,0,1-1.923-.663,2.145,2.145,0,0,1-.751-1.681,2.24,2.24,0,0,1,.941-1.923A4.437,4.437,0,0,1,58.66,11.2h1.318v-.623a1.522,1.522,0,0,0-.425-1.132A1.707,1.707,0,0,0,58.3,9.02a1.976,1.976,0,0,0-1.216.366,1.079,1.079,0,0,0-.491.886H55.232a1.87,1.87,0,0,1,.421-1.146A2.874,2.874,0,0,1,56.8,8.251a3.844,3.844,0,0,1,1.586-.322,3.133,3.133,0,0,1,2.146.685,2.47,2.47,0,0,1,.806,1.886v3.647a4.459,4.459,0,0,0,.278,1.736V16Zm-2.249-1.033a2.381,2.381,0,0,0,1.208-.33,1.994,1.994,0,0,0,.828-.857V12.155H58.916q-2.49,0-2.49,1.458a1.234,1.234,0,0,0,.425,1A1.633,1.633,0,0,0,57.942,14.967Zm5.186-3a4.642,4.642,0,0,1,.864-2.933,2.941,2.941,0,0,1,4.468-.157V4.75h1.355V16H68.569l-.066-.85a2.759,2.759,0,0,1-2.263,1A2.707,2.707,0,0,1,64,15.019a4.7,4.7,0,0,1-.868-2.944Zm1.355.154a3.515,3.515,0,0,0,.557,2.109A1.8,1.8,0,0,0,66.577,15a1.977,1.977,0,0,0,1.882-1.157V10.2a1.992,1.992,0,0,0-1.868-1.121,1.808,1.808,0,0,0-1.553.769A3.87,3.87,0,0,0,64.482,12.125Z" transform="translate(1070 6839)" fill="#12263f"/>
    <path id="Trazado_160245" data-name="Trazado 160245" d="M24.953,16,26.806,5.336l3.127.007a3.556,3.556,0,0,1,2.446.732,2.344,2.344,0,0,1,.71,2.043,2.772,2.772,0,0,1-1.926,2.307,1.985,1.985,0,0,1,1.073.952,2.662,2.662,0,0,1,.289,1.487,3.111,3.111,0,0,1-1.157,2.289,4.178,4.178,0,0,1-2.71.846Zm2.241-4.988-.667,3.831,2.175.007a2.606,2.606,0,0,0,1.67-.534,2.079,2.079,0,0,0,.784-1.44,1.707,1.707,0,0,0-.3-1.345,1.636,1.636,0,0,0-1.267-.512Zm.2-1.128,1.985.007a2.557,2.557,0,0,0,1.571-.477A1.87,1.87,0,0,0,31.7,8.1a1.341,1.341,0,0,0-.3-1.174,1.946,1.946,0,0,0-1.322-.433l-2.095-.007Zm11.521,5.332a3.061,3.061,0,0,1-2.366.93,1.975,1.975,0,0,1-1.681-.813,3.109,3.109,0,0,1-.406-2.139l.85-5.12h1.326l-.857,5.142a3.415,3.415,0,0,0-.015.63,1.311,1.311,0,0,0,.315.828,1.075,1.075,0,0,0,.776.322,2.378,2.378,0,0,0,2.2-1.15l1-5.771h1.326L40,16H38.745ZM44.816,14l2.82-5.925H49.1l-4.7,9.243a2.846,2.846,0,0,1-2.52,1.9,4.317,4.317,0,0,1-.8-.132l.117-1.1.344.037a1.737,1.737,0,0,0,1.088-.282,2.6,2.6,0,0,0,.809-1.007l.476-.908-1.37-7.756H43.93Zm7.544,2.146a2.857,2.857,0,0,1-2.314-1.091,3.756,3.756,0,0,1-.7-2.717l.037-.315a5.273,5.273,0,0,1,.7-2.153,4.068,4.068,0,0,1,1.4-1.469,3.273,3.273,0,0,1,1.787-.472,2.52,2.52,0,0,1,1.919.813,3.343,3.343,0,0,1,.762,2.124,6.207,6.207,0,0,1-.029.952l-.081.608H50.661a2.677,2.677,0,0,0,.355,1.831,1.683,1.683,0,0,0,1.454.784,2.819,2.819,0,0,0,2.168-1.055l.762.645a3.486,3.486,0,0,1-1.285,1.124A3.643,3.643,0,0,1,52.36,16.146ZM53.2,9.035a1.937,1.937,0,0,0-1.432.557,3.956,3.956,0,0,0-.97,1.721l3.853.007.029-.117a2.168,2.168,0,0,0-.3-1.534A1.4,1.4,0,0,0,53.2,9.035Zm8.438.249-.623-.066a2.268,2.268,0,0,0-2.007,1.15L58.037,16H56.711l1.377-7.925,1.282-.007-.2.923a2.369,2.369,0,0,1,1.985-1.077,2.432,2.432,0,0,1,.63.11Zm-38,22.842a4.745,4.745,0,0,1-.828,2.915,2.653,2.653,0,0,1-2.241,1.106,2.906,2.906,0,0,1-2.271-.916v3.816H16.944V28.075h1.238l.066.879a2.791,2.791,0,0,1,2.3-1.025,2.7,2.7,0,0,1,2.26,1.077,4.8,4.8,0,0,1,.831,3Zm-1.355-.154a3.5,3.5,0,0,0-.571-2.117,1.84,1.84,0,0,0-1.567-.776A1.992,1.992,0,0,0,18.3,30.17v3.787a2,2,0,0,0,1.86,1.084,1.832,1.832,0,0,0,1.549-.773A3.822,3.822,0,0,0,22.283,31.972Zm6.365,4.175a3.463,3.463,0,0,1-2.622-1.058,3.928,3.928,0,0,1-1.011-2.831v-.249a4.756,4.756,0,0,1,.45-2.106,3.514,3.514,0,0,1,1.26-1.45,3.167,3.167,0,0,1,1.754-.524,2.968,2.968,0,0,1,2.4,1.018,4.408,4.408,0,0,1,.857,2.915v.564H26.37a2.817,2.817,0,0,0,.685,1.893,2.153,2.153,0,0,0,1.666.721,2.36,2.36,0,0,0,1.216-.293,3.055,3.055,0,0,0,.872-.776l.828.645A3.328,3.328,0,0,1,28.648,36.146Zm-.168-7.1a1.807,1.807,0,0,0-1.377.6,2.9,2.9,0,0,0-.688,1.674h3.97v-.1a2.581,2.581,0,0,0-.557-1.6A1.7,1.7,0,0,0,28.48,29.042Zm8.657.249a4.06,4.06,0,0,0-.667-.051,1.786,1.786,0,0,0-1.809,1.135V36H33.306V28.075h1.318l.022.916a2.11,2.11,0,0,1,1.89-1.062,1.384,1.384,0,0,1,.6.1ZM43,33.9a1,1,0,0,0-.414-.853,3.983,3.983,0,0,0-1.443-.524,6.822,6.822,0,0,1-1.633-.527,2.324,2.324,0,0,1-.894-.732,1.752,1.752,0,0,1-.289-1.011,2.056,2.056,0,0,1,.824-1.648,3.218,3.218,0,0,1,2.106-.674,3.311,3.311,0,0,1,2.186.7,2.21,2.21,0,0,1,.839,1.78H42.916a1.223,1.223,0,0,0-.472-.959,1.77,1.77,0,0,0-1.19-.4,1.852,1.852,0,0,0-1.157.322,1.014,1.014,0,0,0-.417.842.822.822,0,0,0,.388.74,4.776,4.776,0,0,0,1.4.476,7.308,7.308,0,0,1,1.644.542,2.4,2.4,0,0,1,.934.758,1.864,1.864,0,0,1,.3,1.08,2.028,2.028,0,0,1-.85,1.7,3.564,3.564,0,0,1-2.2.641,3.991,3.991,0,0,1-1.685-.337,2.74,2.74,0,0,1-1.146-.941,2.268,2.268,0,0,1-.414-1.307h1.355a1.4,1.4,0,0,0,.546,1.08,2.117,2.117,0,0,0,1.344.4,2.185,2.185,0,0,0,1.234-.311A.956.956,0,0,0,43,33.9Zm2.761-1.934a4.681,4.681,0,0,1,.458-2.095,3.415,3.415,0,0,1,1.274-1.436,3.469,3.469,0,0,1,1.864-.505,3.342,3.342,0,0,1,2.618,1.121,4.311,4.311,0,0,1,1,2.981v.1a4.722,4.722,0,0,1-.443,2.076,3.365,3.365,0,0,1-1.267,1.432,3.509,3.509,0,0,1-1.893.513,3.334,3.334,0,0,1-2.611-1.121,4.29,4.29,0,0,1-1-2.966Zm1.362.161a3.39,3.39,0,0,0,.612,2.117,2.072,2.072,0,0,0,3.278-.011,3.707,3.707,0,0,0,.608-2.267A3.384,3.384,0,0,0,51,29.851a1.968,1.968,0,0,0-1.644-.809,1.946,1.946,0,0,0-1.619.8A3.68,3.68,0,0,0,47.12,32.125Zm8.833-4.05.044,1a2.888,2.888,0,0,1,2.373-1.143q2.512,0,2.534,2.834V36H59.549V30.756a1.824,1.824,0,0,0-.392-1.267,1.57,1.57,0,0,0-1.2-.41,1.956,1.956,0,0,0-1.157.352,2.387,2.387,0,0,0-.776.923V36H54.671V28.075ZM67.84,36a2.846,2.846,0,0,1-.19-.835,3.023,3.023,0,0,1-2.256.981,2.8,2.8,0,0,1-1.923-.663A2.145,2.145,0,0,1,62.72,33.8a2.24,2.24,0,0,1,.941-1.923,4.437,4.437,0,0,1,2.648-.685h1.318v-.623a1.522,1.522,0,0,0-.425-1.132,1.707,1.707,0,0,0-1.252-.421,1.976,1.976,0,0,0-1.216.366,1.079,1.079,0,0,0-.491.886H62.882a1.87,1.87,0,0,1,.421-1.146,2.874,2.874,0,0,1,1.143-.875,3.844,3.844,0,0,1,1.586-.322,3.133,3.133,0,0,1,2.146.685,2.47,2.47,0,0,1,.806,1.886v3.647a4.459,4.459,0,0,0,.278,1.736V36Zm-2.249-1.033a2.381,2.381,0,0,0,1.208-.33,1.994,1.994,0,0,0,.828-.857V32.155H66.566q-2.49,0-2.49,1.458a1.234,1.234,0,0,0,.425,1A1.633,1.633,0,0,0,65.592,34.967Z" transform="translate(1218 6836)" fill="#12263f"/>
    <g id="Grupo_81123" data-name="Grupo 81123" transform="translate(829.856 6854.443)" clip-path="url(#clip-path)">
      <g id="Grupo_81122" data-name="Grupo 81122">
        <g id="Grupo_81121" data-name="Grupo 81121" clip-path="url(#clip-path)">
          <path id="Trazado_116627" data-name="Trazado 116627" d="M393.19,94.948c.016-.38.035-.758.038-1.14a33.14,33.14,0,1,0-66.277-.549c0,.383.01.762.019,1.141h-.028a46.714,46.714,0,0,0,15.729,33.023s5.327,3.914,5.226,15.969l7.314.06,8.908.074,7.314.06c.1-12.055,5.489-15.88,5.489-15.88A46.712,46.712,0,0,0,393.2,94.948Z" transform="translate(-77.197 -14.26)" fill="#feca2e"/>
          <path id="Trazado_116628" data-name="Trazado 116628" d="M373.818,131.181c2.7-.494,4.04-3.576,4.372-6.065.262-1.972,0-4.339-1.515-5.063-.729-.349-1.946-.4-3.6,1.346-1.239,1.307-2.2,3.978-2.863,7.982l-7.467-.062c-.6-4.013-1.513-6.7-2.73-8.029-1.623-1.769-2.84-1.742-3.575-1.4-1.529.7-1.827,3.06-1.6,5.037.289,2.495,1.582,5.6,4.27,6.137l.168.017,1.9.016c.969,8.253.639,19.827.3,25.213l1.782.113c0-.073.46-7.421.313-15.322q-.108-5.791-.6-9.99l6.964.058q-.559,4.186-.763,9.978c-.278,7.9.056,15.252.06,15.326l1.784-.083c-.25-5.391-.387-16.97.718-25.206Zm-14.428-1.89c-1.59-.38-2.537-2.557-2.771-4.575-.21-1.8.2-3.039.566-3.207.147-.069.657.051,1.516.987,1.046,1.141,1.765,3.632,2.247,6.808Zm14.984-6.664c.874-.923,1.385-1.034,1.532-.962.361.173.752,1.417.513,3.216-.268,2.014-1.25,4.175-2.846,4.528l-1.558-.013c.535-3.167,1.295-5.646,2.36-6.769" transform="translate(-83.769 -28.265)" fill="#fff"/>
          <path id="Trazado_116629" data-name="Trazado 116629" d="M369.563,192.155l0-.176-1.524.075-1.523-.1,0,.176-3.538.175s.868,3.05,1.7,3.057l1.807.015,3.047.025,1.807.015c.836.008,1.755-3.028,1.755-3.028Z" transform="translate(-85.706 -45.324)" fill="#db2a31"/>
          <path id="Trazado_116630" data-name="Trazado 116630" d="M357.679,188.123a14.82,14.82,0,0,1,1.055,2.718,1.277,1.277,0,0,0,1.225.951l13.169.108a1.267,1.267,0,0,0,1.234-.93,14.893,14.893,0,0,1,1.1-2.7c.545-1.056,1.045-1.831,1.045-1.831l-19.841-.164s.493.784,1.014,1.848" transform="translate(-84.215 -43.983)" fill="#fc4b52"/>
          <path id="Trazado_116631" data-name="Trazado 116631" d="M362.249,186.321l-5.584-.046s.493.784,1.014,1.848a14.82,14.82,0,0,1,1.055,2.718,1.277,1.277,0,0,0,1.225.951l5.031.041a42.669,42.669,0,0,0-1.218-4.63Z" transform="translate(-84.215 -43.983)" fill="#db2a31"/>
          <path id="Trazado_116632" data-name="Trazado 116632" d="M357.679,188.123l17.782.147c.545-1.056,1.045-1.831,1.045-1.831l-19.841-.164s.493.784,1.014,1.848" transform="translate(-84.215 -43.983)" fill="#85b538"/>
          <path id="Trazado_116633" data-name="Trazado 116633" d="M351.776,128.2A50.564,50.564,0,0,1,334.75,92.46h.031c-.011-.411-.025-.821-.021-1.235a35.809,35.809,0,0,1,14.331-28.381,33.153,33.153,0,0,0-22.14,30.994c0,.383.01.762.019,1.141h-.028A46.711,46.711,0,0,0,342.672,128s5.326,3.914,5.226,15.97l7.314.06,2.206.018c-.308-11.92-5.642-15.846-5.642-15.846" transform="translate(-77.197 -14.839)" fill="#e6b31b"/>
          <path id="Trazado_116634" data-name="Trazado 116634" d="M376.709,179.728l-22.969-.19a3,3,0,0,0-.05,6l22.969.19a3,3,0,1,0,.05-6" transform="translate(-82.81 -42.392)" fill="#fc4b52"/>
          <path id="Trazado_116635" data-name="Trazado 116635" d="M360.7,182.6a3.525,3.525,0,0,1,1.716-2.987l-8.677-.072a3,3,0,0,0-.05,6l8.677.072A3.527,3.527,0,0,1,360.7,182.6" transform="translate(-82.81 -42.393)" fill="#db2a31"/>
          <path id="Trazado_116636" data-name="Trazado 116636" d="M378.92,180.626a3.015,3.015,0,0,0-2.112-.9l-22.973-.19a3,3,0,0,0-2.7,1.662l28.354.235a2.94,2.94,0,0,0-.564-.809" transform="translate(-82.909 -42.392)" fill="#85b538"/>
          <path id="Trazado_116637" data-name="Trazado 116637" d="M379.445,174.294a2.955,2.955,0,0,0-.564-.808,3.017,3.017,0,0,0-2.112-.9l-22.973-.19a3.006,3.006,0,0,0-2.7,1.663,2.962,2.962,0,0,0-.32,1.313,3.007,3.007,0,0,0,2.975,3.025l22.973.19a3.011,3.011,0,0,0,3.025-2.975,2.971,2.971,0,0,0-.3-1.318" transform="translate(-82.824 -40.706)" fill="#fc4b52"/>
          <path id="Trazado_116638" data-name="Trazado 116638" d="M360.759,175.453a3.528,3.528,0,0,1,1.716-2.988l-8.677-.072a3,3,0,0,0-.05,6l8.677.072a3.524,3.524,0,0,1-1.667-3.015" transform="translate(-82.824 -40.706)" fill="#db2a31"/>
          <path id="Trazado_116639" data-name="Trazado 116639" d="M376.867,172.587l-22.973-.19a3,3,0,0,0-2.7,1.662l28.354.235a2.953,2.953,0,0,0-.564-.809,3.018,3.018,0,0,0-2.112-.9" transform="translate(-82.923 -40.706)" fill="#85b538"/>
          <path id="Trazado_116640" data-name="Trazado 116640" d="M376.827,165.441l-22.969-.19a3,3,0,0,0-.05,6l22.969.19a3,3,0,1,0,.05-6" transform="translate(-82.838 -39.019)" fill="#fc4b52"/>
          <path id="Trazado_116641" data-name="Trazado 116641" d="M360.818,168.31h0a3.527,3.527,0,0,1,1.717-2.988l-8.678-.072a3,3,0,0,0-.05,6l8.677.072a3.524,3.524,0,0,1-1.667-3.015" transform="translate(-82.838 -39.019)" fill="#db2a31"/>
          <g id="Grupo_81105" data-name="Grupo 81105" transform="translate(291.469 56.798)" style="mix-blend-mode: screen;isolation: isolate">
            <g id="Grupo_81104" data-name="Grupo 81104">
              <g id="Grupo_81103" data-name="Grupo 81103" clip-path="url(#clip-path-3)">
                <path id="Trazado_116642" data-name="Trazado 116642" d="M394.987,79.2c-3.38-4.388-8.5-6.113-11.438-3.851s-2.577,7.653.8,12.041,8.5,6.113,11.437,3.851,2.577-7.653-.8-12.041" transform="translate(-381.563 -74.354)" fill="#fff"/>
              </g>
            </g>
          </g>
          <path id="Trazado_116643" data-name="Trazado 116643" d="M340.236,48.879l-7.989-11.9a1.865,1.865,0,1,0-3.1,2.079l7.989,11.9a1.866,1.866,0,0,0,2.279.677,1.826,1.826,0,0,0,.31-.168,1.865,1.865,0,0,0,.509-2.588" transform="translate(-77.644 -8.536)" fill="#fc4b52"/>
          <path id="Trazado_116644" data-name="Trazado 116644" d="M319.008,71.9l-12.974-5.85a1.865,1.865,0,1,0-1.534,3.4l12.974,5.85a1.865,1.865,0,0,0,1.534-3.4" transform="translate(-71.639 -15.557)" fill="#fc4b52"/>
          <path id="Trazado_116645" data-name="Trazado 116645" d="M312.477,108.444l-12.557.295a1.865,1.865,0,0,0,.087,3.729l12.557-.295a1.865,1.865,0,0,0-.087-3.729" transform="translate(-70.387 -25.606)" fill="#fc4b52"/>
          <path id="Trazado_116646" data-name="Trazado 116646" d="M407.484,37.134a1.866,1.866,0,0,0-2.6.466L396.7,49.368a1.865,1.865,0,0,0,3.063,2.13L407.95,39.73a1.865,1.865,0,0,0-.466-2.6" transform="translate(-93.59 -8.689)" fill="#fc4b52"/>
          <path id="Trazado_116647" data-name="Trazado 116647" d="M429.114,67.1l-.007,0-13.069,5.634a1.865,1.865,0,0,0,1.47,3.428l.007,0,13.069-5.634a1.865,1.865,0,0,0-1.47-3.428" transform="translate(-97.968 -15.808)" fill="#fc4b52"/>
          <path id="Trazado_116648" data-name="Trazado 116648" d="M434.672,109.821l-12.551-.5a1.865,1.865,0,0,0-.149,3.728l12.551.5a1.865,1.865,0,0,0,.149-3.728" transform="translate(-99.213 -25.812)" fill="#fc4b52"/>
          <path id="Trazado_116649" data-name="Trazado 116649" d="M372.765,30.292a1.865,1.865,0,1,0-3.73-.031l-.114,13.732a1.865,1.865,0,1,0,3.73.031Z" transform="translate(-87.109 -6.708)" fill="#fc4b52"/>
          <path id="Trazado_116650" data-name="Trazado 116650" d="M6.4,17.746S.624,22.6,2.379,29.246a29.957,29.957,0,0,1,1.1,11.021S3.4,47.785,15.759,48.879,43.1,49.974,43.1,49.974s3.071-2.189,3.583-3.8A50.589,50.589,0,0,1,50.1,39.95S46.615,37.2,48.515,31s.8-8.248-.8-11.751S32.43,16.765,30.09,16.765,6.4,17.746,6.4,17.746" transform="translate(-0.483 -3.926)"/>
          <path id="Trazado_116651" data-name="Trazado 116651" d="M42.047,73.169V92.617a6.468,6.468,0,0,1-5.507,6.394c-1.575.24-3.538.469-5.951.646a25.821,25.821,0,0,1-6.027-.24,6.464,6.464,0,0,1-5.431-6.384v-22.8Z" transform="translate(-4.517 -16.583)" fill="#f5b0a6"/>
          <path id="Trazado_116652" data-name="Trazado 116652" d="M41.694,73.169v6.216l-.135.029S39.368,86.13,30.41,86.226A10.934,10.934,0,0,1,19.8,79.442V70.231Z" transform="translate(-4.675 -16.583)" fill="#f18a8b"/>
          <path id="Trazado_116653" data-name="Trazado 116653" d="M14.48,52.375a7.24,7.24,0,1,1-7.24-7.227,7.234,7.234,0,0,1,7.24,7.227" transform="translate(0 -10.66)" fill="#f5b0a6"/>
          <path id="Trazado_116654" data-name="Trazado 116654" d="M11.9,56.262a.439.439,0,0,1-.294-.113l-4.9-4.42a.439.439,0,1,1,.589-.651l4.9,4.42a.438.438,0,0,1-.295.764" transform="translate(-1.548 -12.034)" fill="#f18a8b"/>
          <path id="Trazado_116655" data-name="Trazado 116655" d="M64.1,52.375a7.24,7.24,0,1,1-7.24-7.227,7.234,7.234,0,0,1,7.24,7.227" transform="translate(-11.717 -10.66)" fill="#f5b0a6"/>
          <path id="Trazado_116656" data-name="Trazado 116656" d="M55.535,57.154a.439.439,0,0,0,.294-.113l4.9-4.42a.439.439,0,1,0-.589-.651l-4.9,4.42a.439.439,0,0,0,.295.764" transform="translate(-13.009 -12.244)" fill="#f18a8b"/>
          <path id="Trazado_116657" data-name="Trazado 116657" d="M18,18.874,10.6,29.895v29A3.961,3.961,0,0,0,12.269,62.1s8.3,8.445,16.857,8.908c8.561-.463,16.856-8.908,16.856-8.908a3.96,3.96,0,0,0,1.668-3.209v-29L41.4,23.213Z" transform="translate(-2.503 -4.457)" fill="#f5b0a6"/>
          <path id="Trazado_116658" data-name="Trazado 116658" d="M36.991,58.892H32.474a.449.449,0,1,1,0-.9h4.017l-1.26-12.2a.449.449,0,0,1,.4-.493.454.454,0,0,1,.493.4l1.311,12.7a.45.45,0,0,1-.447.495" transform="translate(-7.561 -10.695)" fill="#cc6d72"/>
          <path id="Trazado_116659" data-name="Trazado 116659" d="M24.422,40.344c-.031,1.7-5.676,2.816-5.963,1.26-.477-2.583,6.013-3.958,5.963-1.26" transform="translate(-4.353 -9.179)"/>
          <path id="Trazado_116660" data-name="Trazado 116660" d="M49.74,41.484c-.783,1.36-5.83-.244-5.369-1.626.765-2.295,6.609-.528,5.369,1.626" transform="translate(-10.47 -9.157)"/>
          <g id="Grupo_81108" data-name="Grupo 81108" transform="translate(9.261 42.043)" opacity="0.5">
            <g id="Grupo_81107" data-name="Grupo 81107">
              <g id="Grupo_81106" data-name="Grupo 81106" clip-path="url(#clip-path-4)">
                <path id="Trazado_116661" data-name="Trazado 116661" d="M23.848,60.891a5.862,5.862,0,1,1-5.862-5.851,5.857,5.857,0,0,1,5.862,5.851" transform="translate(-12.124 -55.039)" fill="#f18a8b"/>
              </g>
            </g>
          </g>
          <g id="Grupo_81111" data-name="Grupo 81111" transform="translate(32.242 41.544)" opacity="0.5">
            <g id="Grupo_81110" data-name="Grupo 81110">
              <g id="Grupo_81109" data-name="Grupo 81109" clip-path="url(#clip-path-4)">
                <path id="Trazado_116662" data-name="Trazado 116662" d="M53.933,60.237a5.862,5.862,0,1,1-5.862-5.851,5.857,5.857,0,0,1,5.862,5.851" transform="translate(-42.209 -54.385)" fill="#f18a8b"/>
              </g>
            </g>
          </g>
          <path id="Trazado_116663" data-name="Trazado 116663" d="M26.574,51.972c-.028,1.18-.608,2.124-1.3,2.108s-1.225-.985-1.2-2.166.608-2.124,1.3-2.108,1.225.985,1.2,2.166" transform="translate(-5.685 -11.76)"/>
          <path id="Trazado_116664" data-name="Trazado 116664" d="M46.128,50.893c-.027,1.18-.608,2.124-1.3,2.108s-1.225-.985-1.2-2.166.608-2.124,1.3-2.108,1.224.985,1.2,2.166" transform="translate(-10.303 -11.505)"/>
          <path id="Trazado_116665" data-name="Trazado 116665" d="M34.977,72.586a6.145,6.145,0,0,1-3.8-1.382.449.449,0,0,1,.606-.664,5.007,5.007,0,0,0,6.213.154.449.449,0,1,1,.5.746,6.246,6.246,0,0,1-3.516,1.146" transform="translate(-7.326 -16.628)" fill="#cc6d72"/>
          <path id="Trazado_116666" data-name="Trazado 116666" d="M48.8,17.72a16.525,16.525,0,0,0-5.312-7.066A7.847,7.847,0,0,0,40.742,9.26c-.5-.133-1.894-.529-2.377-.247A4.279,4.279,0,0,0,40.44,5.871c-.053.449-3.747-.147-4.113-.228-1.383-.306-2.725-.766-4.078-1.174a31.456,31.456,0,0,0-5.437-1.511A16.284,16.284,0,0,0,16.217,5.52a10.781,10.781,0,0,0-3.323,3.358,5.626,5.626,0,0,0-.9,2.178c-.021.2.161,1.541.511,1.533A9.459,9.459,0,0,0,6.892,14.5,7.511,7.511,0,0,0,4.178,19.29c-.318,2.381.536,4.7,1.062,6.99a25.49,25.49,0,0,1,.347,6.478,12.267,12.267,0,0,0,2.277-.334V28.154A12.481,12.481,0,0,1,20.506,15.84H33.049a12.856,12.856,0,0,1,9.928,4.688,12.681,12.681,0,0,1,2.641,6.68A18.044,18.044,0,0,1,45.6,30.49c-.035.494-.1.99-.138,1.481a7.869,7.869,0,0,0,.234,1.4c.1.811.128,1.625.167,2.439L48.074,34.5c.057-1.249-.081-2.506.06-3.745a13.3,13.3,0,0,1,1.147-3.994c1.247-2.71.564-6.369-.484-9.039" transform="translate(-0.97 -0.675)"/>
          <path id="Trazado_116667" data-name="Trazado 116667" d="M48.016,30.031a10.659,10.659,0,0,0-.742-3.06c-.32-.9-.293-1.9-.612-2.839A10.239,10.239,0,0,0,43.6,19.7c-4.24-3.633-10.541-4.287-15.942-4.287-21,0-21.143,13.159-21.143,13.159C6.752,30.1,5.2,31.815,5.441,33.34a18.6,18.6,0,0,0,.146,2.19,3.544,3.544,0,0,1-.073,1.386l3.381.51a5.306,5.306,0,0,1,1.648-3.036c.717-.518,1.435-1.028,2.141-1.559A4.8,4.8,0,0,0,14.347,31.1a11.135,11.135,0,0,0,.577-2.719,8.415,8.415,0,0,0,1.271.967,14.874,14.874,0,0,0,1.451.988,18.344,18.344,0,0,0,3.174,1.449,15.564,15.564,0,0,0,7.829.845,14.119,14.119,0,0,0,4.114-1.586c1.774-.975,3.211-2.145,5.343-2.279,1.761-.111,4.535.352,5.112,2.263.532,1.759-.286,3.87.878,5.459.235.321.543.583.809.881a5.945,5.945,0,0,1,1.322,3.716c-.031-.62.717-1.486.924-2.074.309-.875,1.288-.665,1.43-1.578.316-2.04-.435-5.337-.565-7.4" transform="translate(-1.279 -3.64)"/>
          <path id="Trazado_116668" data-name="Trazado 116668" d="M12.293,37.531s-2.195,4.963-1.317,6.5S8.709,42.2,8.709,42.2s-1.389-5.036-.731-5.693,3.729-3.649,3.729-3.649Z" transform="translate(-1.842 -7.759)"/>
          <path id="Trazado_116669" data-name="Trazado 116669" d="M194.971,66.742c-5.75-3.673-10.381.639-11.978-5.749s6.548-20.574,6.548-20.574c9.07-23.348-2.555-36.764-18.527-39.959s-24.6,11.283-24.6,11.283-7.666,26.41-6.485,48.261,21.658,33.889,41.783,33.081,19.006-22.67,13.256-26.344" transform="translate(-33.011 0)"/>
          <path id="Trazado_116670" data-name="Trazado 116670" d="M154.637,6.217c-2.465,1.9-1.627,7.12,1.871,11.654s15.145,9.744,17.611,7.841,1.656-8.478-1.786-13.051c-4.809-6.388-15.231-8.347-17.7-6.444" transform="translate(-36.179 -1.304)" fill="#243354"/>
          <path id="Trazado_116671" data-name="Trazado 116671" d="M149.713,15.4c-6.776-6.175-18.419-3.514-18.419-3.514s-10.9-13.522-17.827,0,3.625,22.041,3.625,22.041l26.985,18.6c15.422-8.872,12.412-30.952,5.637-37.128" transform="translate(-26.235 -1.387)"/>
          <path id="Trazado_116672" data-name="Trazado 116672" d="M121.126,89.712s-2.337,8.658,4.421,8.36c4.978-.218,11.868.157,22.81-10.449l.553-27.256-25.5,1.864Z" transform="translate(-28.508 -14.254)" fill="#f5b0a6"/>
          <path id="Trazado_116673" data-name="Trazado 116673" d="M121.74,85.816s24.137-4.464,24.356-23.008H123.647Z" transform="translate(-28.745 -14.83)" fill="#f18a8b"/>
          <path id="Trazado_116674" data-name="Trazado 116674" d="M167.26,31.285c-.678-1.665-1.37-3.324-2.127-4.951-2.964-6.378-7.135-12.146-13.642-15.225A28.248,28.248,0,0,0,145.085,9a18.936,18.936,0,0,0-6.415-1.618A24.847,24.847,0,0,0,128.631,8.8a26.35,26.35,0,0,0-2.543,1.053,11.551,11.551,0,0,0-3.472,1.817c.036-.012-8.63,3.968-13.654,15.218-5.891,13.19,4.588,22.022,4.514,26.992,7.913-1.551,19.643-5.611,32-2.066,30.014,8.6,21.941-19.762,21.783-20.517l0-.012" transform="translate(-25.304 -1.729)"/>
          <path id="Trazado_116675" data-name="Trazado 116675" d="M146.344,45.091c3.987-6.4,15.588-29.58-21.778-31.771,0,0-10.484,16.8-13.026,31.568a37.448,37.448,0,0,0-.5,4.214c-.343,5.825.879,11.855,5.088,15.073C126.489,72.1,149.1,53.41,149.1,53.41s4.73-2.039,2.374-7.766c-1.63-3.964-3.842-2.173-5.129-.554" transform="translate(-26.207 -3.145)" fill="#f5b0a6"/>
          <path id="Trazado_116676" data-name="Trazado 116676" d="M137.064,58.681c-2.512-.17-4.612.639-4.692,1.807s1.893,2.253,4.4,2.423,4.612-.637,4.692-1.806-1.893-2.253-4.4-2.424" transform="translate(-31.255 -13.85)" fill="#f18a8b"/>
          <path id="Trazado_116677" data-name="Trazado 116677" d="M111.557,54.646a37.427,37.427,0,0,0-.5,4.214c.025,0,.053,0,.077.005,2.512.17,4.613-.639,4.693-1.808.077-1.147-1.826-2.214-4.275-2.412" transform="translate(-26.224 -12.903)" fill="#f18a8b"/>
          <path id="Trazado_116678" data-name="Trazado 116678" d="M158.93,49.369c-4.423,8.286-1.345,13.227-1.345,13.227,5.179,2.522,12.606-2.924,9.885-9.489s-8.54-3.738-8.54-3.738" transform="translate(-36.963 -11.514)" fill="#f5b0a6"/>
          <path id="Trazado_116679" data-name="Trazado 116679" d="M163.844,52.112c-3.433.88-5.234,5.817-4.654,9.047,0,.021-.008.042-.011.062-.045.276.385.332.468.086a11.125,11.125,0,0,1,.875-2.21A2.3,2.3,0,0,1,162.9,57.91c.074,0,.121-.11.047-.147a2.065,2.065,0,0,0-2.961,1.041c.549-2.593,1.514-5.163,3.9-6.6.047-.028.023-.108-.034-.094" transform="translate(-37.563 -12.304)" fill="#f18a8b"/>
          <path id="Trazado_116680" data-name="Trazado 116680" d="M127.944,12.551a24.563,24.563,0,0,0-1.173,2.736,5.883,5.883,0,0,0-.369.833c-.222.6-.422,1.211-.589,1.828a22.871,22.871,0,0,0-.66,3.687,20.726,20.726,0,0,0-.031,3.833,13.625,13.625,0,0,0,.682,3.653c.05.129.264.112.253-.043-.042-.6-.167-1.2-.228-1.8s-.113-1.214-.139-1.823c-.031-.713-.025-1.425,0-2.137.569,5.715,11.587,10.917,17.377,13.5,5.875,2.624,6.076,11.555,6.076,11.555s.057-6.268,2.863-7.839c2.945-1.648,11.583-28.045-24.061-27.986" transform="translate(-29.526 -2.963)"/>
          <path id="Trazado_116681" data-name="Trazado 116681" d="M131.7,11.2a.5.5,0,0,0-.352.259c-.024.045.046.083.07.038a.415.415,0,0,1,.24-.194.331.331,0,0,1-.279.247.039.039,0,0,0,0,.079.412.412,0,0,0,.37-.392.04.04,0,0,0-.051-.037" transform="translate(-31.013 -2.646)" fill="#323232"/>
          <path id="Trazado_116682" data-name="Trazado 116682" d="M124.251,49.691a.455.455,0,0,0-.5.4,7.056,7.056,0,0,1-1.407,3.513,15.883,15.883,0,0,1-1.338,1.139c-1.764,1.411-3.959,3.169-3.877,4.783a1.857,1.857,0,0,0,.955,1.48,17.236,17.236,0,0,0,4.172,2.135.453.453,0,1,0,.244-.872,16.708,16.708,0,0,1-3.924-2.024.994.994,0,0,1-.543-.765c-.058-1.151,2.107-2.883,3.539-4.03a15.791,15.791,0,0,0,1.429-1.223,7.854,7.854,0,0,0,1.65-4.043.452.452,0,0,0-.4-.5" transform="translate(-27.657 -11.733)" fill="#f18a8b"/>
          <path id="Trazado_116683" data-name="Trazado 116683" d="M135.36,52.48a1.366,1.366,0,1,0,.615,1.551,1.2,1.2,0,0,0-.615-1.551" transform="translate(-31.628 -12.384)"/>
          <path id="Trazado_116684" data-name="Trazado 116684" d="M120.982,49.676c-.558-.073-1.089.452-1.185,1.174a1.2,1.2,0,0,0,.835,1.445c.558.074,1.089-.451,1.185-1.175a1.2,1.2,0,0,0-.835-1.444" transform="translate(-28.283 -11.728)"/>
          <path id="Trazado_116685" data-name="Trazado 116685" d="M133,45.421a.906.906,0,1,0,.532,1.732,3.845,3.845,0,0,1,3.792,1.1.906.906,0,0,0,1.354-1.2A5.671,5.671,0,0,0,133,45.421" transform="translate(-31.253 -10.669)"/>
          <path id="Trazado_116686" data-name="Trazado 116686" d="M118.256,44.087a.906.906,0,0,0,.972,1.529,2.6,2.6,0,0,1,3.328.349.906.906,0,0,0,1.312-1.248,4.414,4.414,0,0,0-5.612-.629" transform="translate(-27.823 -10.235)"/>
          <path id="Trazado_116687" data-name="Trazado 116687" d="M127.151,13.387c-1.532-.154-4.726,2.724-7.593,7.722s-3.449,15.482-1.99,12.108c1.5-3.464,7.183-11.07,7.183-11.07s3.932-8.606,2.4-8.759" transform="translate(-27.578 -3.16)"/>
          <path id="Trazado_116688" data-name="Trazado 116688" d="M126.29,70.814a9.932,9.932,0,0,0-3.421-.322,15.53,15.53,0,0,0-3.136.3,1.826,1.826,0,0,0-1.037.95,2.164,2.164,0,0,0,.425,1.632,5.584,5.584,0,0,0,6.709,1.675c1.548-.775,2.265-3.281.46-4.24" transform="translate(-28.019 -16.643)" fill="#323232"/>
          <path id="Trazado_116689" data-name="Trazado 116689" d="M125.623,72.88a5.93,5.93,0,0,0-2.318.8,7.154,7.154,0,0,0-1.851,1.7,5.6,5.6,0,0,0,5.033.213,2.851,2.851,0,0,0,1.5-2.751,7.787,7.787,0,0,0-2.37.04" transform="translate(-28.678 -17.181)" fill="#f19a6d"/>
          <path id="Trazado_116690" data-name="Trazado 116690" d="M39.361,174.822h-21.6L12.8,200.614s-.894,1.66,3.065,9.577c3.6,7.191,14.584,12.386,14.584,12.386l5.59-3.447c5.873-4.214,5.235-9.959,5.235-9.959Z" transform="translate(-3.002 -41.279)" fill="#faba97"/>
          <path id="Trazado_116691" data-name="Trazado 116691" d="M26.149,186.869s.422,14.675,17.828,16.7l-.934-14.54Z" transform="translate(-6.174 -44.123)" fill="#f5927e"/>
          <path id="Trazado_116692" data-name="Trazado 116692" d="M48.766,164.49a95.365,95.365,0,0,0-5.535-18.766c-11.115-16.293-33.259,1.014-31.3,18.656,1,8.944,8.541,17.323,15.972,20.768,7.112,3.306,15.71,1.225,18.348-1.808,2.441-2.821,3.29-6.986,3.23-11.551a45.72,45.72,0,0,0-.716-7.3" transform="translate(-2.788 -32.87)" fill="#faba97"/>
          <path id="Trazado_116693" data-name="Trazado 116693" d="M45.77,189.156a8.988,8.988,0,0,0,.4,2.081c.414,1.266,1.237,2.54,2.874,2.053a3.763,3.763,0,0,0,1.878-1.306,8.364,8.364,0,0,0,1.512-3.953,10.82,10.82,0,0,1-6.662,1.125" transform="translate(-10.807 -44.398)" fill="#3e2312"/>
          <path id="Trazado_116694" data-name="Trazado 116694" d="M46.291,192.083c.414,1.266,1.236,2.54,2.874,2.053a3.763,3.763,0,0,0,1.877-1.307c-1.021-1.393-3.143-1.51-4.751-.746" transform="translate(-10.93 -45.244)" fill="#ef4623"/>
          <path id="Trazado_116695" data-name="Trazado 116695" d="M50.521,181.611a.466.466,0,0,1-.349-.775c1.525-1.73,2.726-3.644,2.569-4.1-.118-.339-1.96-.532-4.071-.263a.467.467,0,0,1-.477-.254c-1.548-3.114-1.719-8.591-1.726-8.824a.466.466,0,0,1,.932-.026c0,.053.162,5.155,1.49,8.139,1.5-.167,4.308-.3,4.733.921.441,1.266-1.994,4.162-2.751,5.019a.465.465,0,0,1-.35.158" transform="translate(-10.972 -39.413)" fill="#de7360"/>
          <path id="Trazado_116696" data-name="Trazado 116696" d="M38.431,173.266a1.537,1.537,0,1,0,1.7,1.052,1.42,1.42,0,0,0-1.7-1.052" transform="translate(-8.872 -40.899)" fill="#0f1231"/>
          <path id="Trazado_116697" data-name="Trazado 116697" d="M55.233,170.516a1.537,1.537,0,1,0,1.7,1.052,1.42,1.42,0,0,0-1.7-1.052" transform="translate(-12.839 -40.249)" fill="#0f1231"/>
          <path id="Trazado_116698" data-name="Trazado 116698" d="M38.3,161.825c-1.965.221-4.5,4-3.8,5.983a15.447,15.447,0,0,1,5.1-3.415c2.849-1.046.663-2.789-1.3-2.568" transform="translate(-8.118 -38.206)" fill="#0e0d0b"/>
          <path id="Trazado_116699" data-name="Trazado 116699" d="M52.695,160.678c-2.162-.322-4.909,2.536-1.9,2.388a9.909,9.909,0,0,1,5.507,1.58s-.816-3.552-3.612-3.968" transform="translate(-11.68 -37.933)" fill="#0e0d0b"/>
          <path id="Trazado_116700" data-name="Trazado 116700" d="M33.017,178.239c-2.927.5-4.973,2.827-4.57,5.206s3.1,3.906,6.03,3.41,4.973-2.827,4.57-5.206-3.1-3.906-6.03-3.41" transform="translate(-6.705 -42.064)" fill="#f08372"/>
          <path id="Trazado_116701" data-name="Trazado 116701" d="M57.818,178.215a3.98,3.98,0,0,0,2.535,2.436,45.808,45.808,0,0,0-.716-7.3,4.435,4.435,0,0,0-1.82,4.864" transform="translate(-13.606 -40.932)" fill="#f08372"/>
          <path id="Trazado_116702" data-name="Trazado 116702" d="M16.952,171.044a3.224,3.224,0,0,0-3.245,2.04,7.166,7.166,0,0,0-.626,5.036,9.288,9.288,0,0,0,2.835,4.309,4.264,4.264,0,0,0,2.147,1.172,1.893,1.893,0,0,0,2.049-1.037l-.628-8.117c-.9-1.144-1.109-3.094-2.532-3.4" transform="translate(-3.037 -40.381)" fill="#faba97"/>
          <path id="Trazado_116703" data-name="Trazado 116703" d="M48.113,140.38a24.373,24.373,0,0,0-4.356-4.747,17.9,17.9,0,0,0-4.693-2.733,22.539,22.539,0,0,0-5.347-1.4,29.972,29.972,0,0,0-5.721-.226,34.684,34.684,0,0,0-5.751.808,33.672,33.672,0,0,0-5.362,1.685,28.005,28.005,0,0,0-4.706,2.438,18.923,18.923,0,0,0-3.657,3.047,11.629,11.629,0,0,0-2.282,3.563,8.562,8.562,0,0,0-.294.895.36.36,0,0,0,.693.191,9.6,9.6,0,0,1,1.762-3.4,16.361,16.361,0,0,1,3.211-3.033,25.452,25.452,0,0,1,4.366-2.528,32.139,32.139,0,0,1,5.063-1.816,34.009,34.009,0,0,1,5.5-1.015,31.006,31.006,0,0,1,5.6-.06,24.636,24.636,0,0,1,5.335,1.022,18.5,18.5,0,0,1,4.752,2.246,21.687,21.687,0,0,1,4.318,3.946,24.374,24.374,0,0,1,2,2.686,11.418,11.418,0,0,1,1.347,2.738,5.91,5.91,0,0,1,.259,1.27c.012.147.238.152.233,0a7.576,7.576,0,0,0-.658-2.713,15.143,15.143,0,0,0-1.615-2.87" transform="translate(-1.4 -30.986)" fill="#5b332a"/>
          <path id="Trazado_116704" data-name="Trazado 116704" d="M14.736,144.909l.008,0c.026-.011.024-.011-.008,0" transform="translate(-3.479 -34.213)" fill="#5b332a"/>
          <path id="Trazado_116705" data-name="Trazado 116705" d="M14.368,143.436a7.252,7.252,0,0,0-5.543,2.211A18.938,18.938,0,0,0,4.34,152.3a28.274,28.274,0,0,0-2.205,9.476,27.049,27.049,0,0,0,.212,5.273,23.017,23.017,0,0,0,1.282,5.168A13.241,13.241,0,0,0,6.5,176.489a14.583,14.583,0,0,0,4.185,3.083,10.883,10.883,0,0,0,1.055.44c.122.044.211-.16.089-.213a14.463,14.463,0,0,1-4.063-2.832,14.681,14.681,0,0,1-3.087-4.029,13.219,13.219,0,0,1-.848-2.275,25.547,25.547,0,0,1-.6-2.594,26.963,26.963,0,0,1-.4-5.116,27.718,27.718,0,0,1,1.773-9.359A20,20,0,0,1,8.7,146.775a9.832,9.832,0,0,1,2.491-1.949q.159-.086.323-.164c.059-.027.118-.055.177-.081l.059-.026.01,0-.008,0c.033-.014.034-.015.008,0l.052-.021a6.728,6.728,0,0,1,.65-.224,5.942,5.942,0,0,1,.681-.147l.025,0,.034,0-.034,0,.057-.007.147-.015c.118-.01.236-.015.354-.017a4.785,4.785,0,0,1,.645.036.361.361,0,0,0,.359-.359.368.368,0,0,0-.359-.359" transform="translate(-0.493 -33.859)" fill="#5b332a"/>
          <path id="Trazado_116706" data-name="Trazado 116706" d="M16.588,144.39l.034,0-.034,0" transform="translate(-3.916 -34.092)" fill="#5b332a"/>
          <path id="Trazado_116707" data-name="Trazado 116707" d="M34.517,133.595c-1.626-.336-9.275-1.205-14.733.192-7.651,1.959-14.727,9.128-16.462,16.945-1.694,7.628,2.184,22.091,7.9,27.423l7.243-10.547c2.554-4.479,2.486-6.506,1.582-11.541,2.092.613,5.446,1.577,7.492.825s2.357-3.87.965-5.547c2.324,1.688,7.274,4.69,10.08,4.078s3.111-5.421,2.178-8.137c.5,1.419,4.115,3.262,6.029,2.839,7-1.545,1.469-7.837.467-9.113-1.762-2.244-9.944-6.841-12.738-7.418" transform="translate(-0.69 -31.408)" fill="#5b332a"/>
          <path id="Trazado_116708" data-name="Trazado 116708" d="M15.44,169.776c-2.487.189-4.285,3.208-4.016,6.742s2.5,6.246,4.991,6.056,4.286-3.208,4.016-6.742-2.5-6.245-4.991-6.056" transform="translate(-2.691 -40.085)" fill="#f5927e"/>
          <path id="Trazado_116709" data-name="Trazado 116709" d="M20.284,172.511c-2.39.679-4.033,3.78-3.76,7.365a9.544,9.544,0,0,0,.856,3.33c.08,0,.158.022.239.016,2.487-.189,4.285-3.208,4.016-6.742a8.118,8.118,0,0,0-1.351-3.969" transform="translate(-3.895 -40.733)" fill="#faba97"/>
          <path id="Trazado_116710" data-name="Trazado 116710" d="M25.543,140.249h0l0,0" transform="translate(-6.03 -33.115)" fill="#77463d"/>
          <path id="Trazado_116711" data-name="Trazado 116711" d="M27.543,140.781l-.014,0,.014,0" transform="translate(-6.5 -33.241)" fill="#77463d"/>
          <path id="Trazado_116712" data-name="Trazado 116712" d="M24.243,139.5c.013.01.011.008,0,0s-.024-.019,0,0" transform="translate(-5.722 -32.936)" fill="#77463d"/>
          <path id="Trazado_116713" data-name="Trazado 116713" d="M23.41,138.665l0-.006-.007-.008.011.015" transform="translate(-5.525 -32.738)" fill="#77463d"/>
          <path id="Trazado_116714" data-name="Trazado 116714" d="M12.773,148.305l0-.011,0,.011" transform="translate(-3.014 -35.014)" fill="#77463d"/>
          <path id="Trazado_116715" data-name="Trazado 116715" d="M12.246,146.434s0,.008,0,0" transform="translate(-2.891 -34.576)" fill="#77463d"/>
          <path id="Trazado_116716" data-name="Trazado 116716" d="M184.7,192.442c-.6-2.053-1.361-4.068-2.141-6.061-2.215-5.66-4.567-11.266-6.957-16.854-6.017-14.052-12.239-30.478-24.042-41.595a21.266,21.266,0,0,0-15.065-5.981,23.727,23.727,0,0,0-17.577,7.38c-1.132.694-16.212,4.133-13,21.074,1.609,8.49,3.056,19.061,4.725,27.512,1.041,5.323.942,14.547.555,24.344-.186,4.7,2.37,8.678,5.889,11.8s7.97,4.993,12.464,6.381c11.925,3.683,25.655,4.069,36.162-2.667,3.036-1.946,5.745-4.444,9.043-5.9,2.6-1.148,5.528-1.632,7.864-3.327,2.647-1.92,3.342-5.536,3.306-8.637a27.694,27.694,0,0,0-1.225-7.468" transform="translate(-24.903 -28.795)"/>
          <path id="Trazado_116717" data-name="Trazado 116717" d="M124.667,145.143c4.644,14.541,14.773,20.137,20.27,22.165.024-.073.041-.147.067-.22,1.415-3.942,5.507-6.1,9.138-4.831s5.428,5.5,4.013,9.447c-1.292,3.6-3.022,4.461-6.246,5.847l.395,16.909s-3.7,6.049-14.2,7.339a14.561,14.561,0,0,1-7.375-.837,5.091,5.091,0,0,1-3.149-4.854l.244-9.319c-12.7,2.8-12.755-6.047-12.536-20.934s9.382-20.713,9.382-20.713" transform="translate(-27.21 -34.271)" fill="#faba97"/>
          <path id="Trazado_116718" data-name="Trazado 116718" d="M148.87,191.877s-6.527,12.722-17.294,11.086l.1-5.139s8.879-6.119,17.192-5.947" transform="translate(-31.068 -45.305)" fill="#f5927e"/>
          <path id="Trazado_116719" data-name="Trazado 116719" d="M164.353,170.454a.057.057,0,0,1,.05.1c-2.532,1.871-3.332,4.854-3.661,7.816.567-1.254,1.564-2.121,3.232-1.5.088.033.047.166-.037.17a2.617,2.617,0,0,0-2.551,1.595,12.363,12.363,0,0,0-.74,2.57c-.066.284-.559.27-.539-.044,0-.023,0-.047.005-.07-1.022-3.549.457-9.274,4.24-10.642" transform="translate(-37.731 -40.247)" fill="#f5927e"/>
          <path id="Trazado_116720" data-name="Trazado 116720" d="M146.409,165.57l2.858,8.963s-18.8,16.658-29.718,9.989c-16.294-9.95,3.288-49.235,3.288-49.235,41.648-1.7,24.545,28.693,23.572,30.283" transform="translate(-26.698 -31.928)" fill="#faba97"/>
          <path id="Trazado_116721" data-name="Trazado 116721" d="M124.127,138.065a5.657,5.657,0,0,1,.28-.843,23.554,23.554,0,0,1,.881-2.764c34.9-3.512,28.885,23.328,26.163,25.211-2.594,1.793-1.889,7.431-1.889,7.431s-22.447-7.385-25.428-22c.046.691.11,1.382.21,2.069.086.587.193,1.171.315,1.752s.3,1.147.4,1.726c.026.147-.183.185-.244.066a13.187,13.187,0,0,1-1.026-3.472,20.02,20.02,0,0,1-.345-3.716,22.017,22.017,0,0,1,.284-3.634c.1-.615.24-1.226.4-1.829" transform="translate(-29.148 -31.673)"/>
          <path id="Trazado_116722" data-name="Trazado 116722" d="M122.823,136.435c1.516,0-1.492,8.717-1.492,8.717s-4.822,7.918-5.95,11.419c-1.1,3.408-1.556-6.8.762-11.92s5.165-8.216,6.68-8.216" transform="translate(-27.03 -32.215)"/>
          <path id="Trazado_116723" data-name="Trazado 116723" d="M120.15,176.388a12.918,12.918,0,0,0,.992-1.021,5.626,5.626,0,0,0,.856-2.929.368.368,0,0,1,.367-.367h0a.368.368,0,0,1,.367.368,6.293,6.293,0,0,1-1.011,3.379,13.155,13.155,0,0,1-1.06,1.1c-1.068,1.034-2.682,2.6-2.544,3.513.013.084.052.341.5.57a13.926,13.926,0,0,0,3.35,1.309.367.367,0,0,1-.063.729.347.347,0,0,1-.063-.005,14.169,14.169,0,0,1-3.557-1.377,1.5,1.5,0,0,1-.9-1.116c-.195-1.291,1.443-2.876,2.759-4.15" transform="translate(-27.715 -40.63)" fill="#f08372"/>
          <path id="Trazado_116724" data-name="Trazado 116724" d="M131.4,173.567a1.1,1.1,0,1,1-1.01.9.966.966,0,0,1,1.01-.9" transform="translate(-30.782 -40.98)" fill="#2f2f2f"/>
          <path id="Trazado_116725" data-name="Trazado 116725" d="M120.382,172.386a1.1,1.1,0,1,1-.866,1.037.97.97,0,0,1,.866-1.037" transform="translate(-28.22 -40.704)" fill="#2f2f2f"/>
          <path id="Trazado_116726" data-name="Trazado 116726" d="M128.909,168.055a4.65,4.65,0,0,1,4.728.846.735.735,0,0,1-.992,1.084,3.183,3.183,0,0,0-3.174-.573.734.734,0,0,1-.563-1.357" transform="translate(-30.331 -39.602)"/>
          <path id="Trazado_116727" data-name="Trazado 116727" d="M117.726,168.065a3.622,3.622,0,0,1,4.594.054.735.735,0,0,1-.952,1.119,2.151,2.151,0,0,0-2.741-.014.734.734,0,1,1-.9-1.16" transform="translate(-27.73 -39.494)"/>
          <path id="Trazado_116728" data-name="Trazado 116728" d="M136.335,178.3c2.371.007,4.291.9,4.288,1.988s-1.929,1.969-4.3,1.961-4.291-.9-4.288-1.988,1.929-1.969,4.3-1.961" transform="translate(-31.176 -42.1)" fill="#f5927e"/>
          <g id="Grupo_81114" data-name="Grupo 81114" transform="translate(103.576 100.621)" opacity="0.34">
            <g id="Grupo_81113" data-name="Grupo 81113">
              <g id="Grupo_81112" data-name="Grupo 81112" clip-path="url(#clip-path-6)">
                <path id="Trazado_116729" data-name="Trazado 116729" d="M139.808,145.446c-1.055-5.773.551-13.722.551-13.722-.281,8.416,21.945,24.97,21.945,24.97-14-4.451-19.627-13.4-19.627-13.4-.844,5.634,5.841,13.819,5.841,13.819-14-6.051-12.907-16.813-12.907-16.813.07,2.226,4.2,5.148,4.2,5.148" transform="translate(-135.592 -131.724)" fill="#303030"/>
              </g>
            </g>
          </g>
          <path id="Trazado_116730" data-name="Trazado 116730" d="M128.62,189.363a7.739,7.739,0,0,1-.073,1.825c-.191,1.132-.729,2.323-2.186,2.118a3.247,3.247,0,0,1-1.768-.874,7.208,7.208,0,0,1-1.8-3.176,9.324,9.324,0,0,0,5.823.107" transform="translate(-28.995 -44.687)" fill="#292929"/>
          <path id="Trazado_116731" data-name="Trazado 116731" d="M129.1,191.729c-.191,1.132-.729,2.323-2.187,2.118a3.249,3.249,0,0,1-1.768-.874c.693-1.318,2.486-1.69,3.955-1.244" transform="translate(-29.55 -45.229)" fill="#f19a6d"/>
          <path id="Trazado_116732" data-name="Trazado 116732" d="M125.92,173.238a5.239,5.239,0,0,0,4.728,5.67c.062,0,.123,0,.184,0a4.7,4.7,0,0,0,3.388-1.476,5.9,5.9,0,0,0,.309-7.72,4.693,4.693,0,0,0-3.444-1.752,5.234,5.234,0,0,0-5.165,5.275m.5.02a4.764,4.764,0,0,1,4.484-4.8c.053,0,.107,0,.16,0a4.194,4.194,0,0,1,3.077,1.571,5.4,5.4,0,0,1-.281,7.05,4.194,4.194,0,0,1-3.192,1.321,4.74,4.74,0,0,1-4.248-5.149" transform="translate(-29.731 -39.659)" fill="#f4f4f4"/>
          <path id="Trazado_116733" data-name="Trazado 116733" d="M109.643,172.589a5.749,5.749,0,0,0,1.286,3.917,4.692,4.692,0,0,0,3.443,1.752c.06,0,.121,0,.181,0a5.515,5.515,0,0,0,.256-10.949,4.69,4.69,0,0,0-3.571,1.473,5.749,5.749,0,0,0-1.594,3.8m.5.02a5.252,5.252,0,0,1,1.452-3.473,4.212,4.212,0,0,1,3.03-1.325c.054,0,.108,0,.163,0a5.006,5.006,0,0,1-.4,9.943,4.2,4.2,0,0,1-3.077-1.571,5.248,5.248,0,0,1-1.17-3.577" transform="translate(-25.888 -39.505)" fill="#f4f4f4"/>
          <path id="Trazado_116734" data-name="Trazado 116734" d="M125.545,173.619a.251.251,0,0,1-.123.469.247.247,0,0,1-.123-.032c-.021-.011-2.072-1.15-2.926-.165a.251.251,0,0,1-.379-.328c1.119-1.29,3.451,0,3.551.057" transform="translate(-28.791 -40.847)" fill="#f4f4f4"/>
          <path id="Trazado_116735" data-name="Trazado 116735" d="M138.31,172.106l16.4-4.626a.251.251,0,0,1,.137.483l-16.4,4.626a.265.265,0,0,1-.068.009.251.251,0,0,1-.068-.492" transform="translate(-32.615 -39.543)" fill="#f4f4f4"/>
          <path id="Trazado_116736" data-name="Trazado 116736" d="M254.615,119.585h9.32v4.633h-9.32v12.09h-5.3v-12.09h-9.293v-4.633h9.293v-11.5h5.3Z" transform="translate(-56.674 -25.52)" fill="#12263f"/>
          <path id="Trazado_116737" data-name="Trazado 116737" d="M482.815,109.431h9.32v4.633H468.223v-4.633h14.592Z" transform="translate(-110.556 -18.839)" fill="#12263f"/>
          <path id="Trazado_116738" data-name="Trazado 116738" d="M482.815,120.6h9.32v4.633H468.223V120.6h14.592Z" transform="translate(-110.556 -21.476)" fill="#12263f"/>
          <path id="Trazado_116739" data-name="Trazado 116739" d="M535.777,61.848s-7.013,5.894-4.884,13.952,1.33,13.37,1.33,13.37-.089,9.121,14.9,10.449,33.176,1.328,33.176,1.328,3.726-2.656,4.346-4.6,4.139-7.556,4.139-7.556-4.228-3.335-1.922-10.862.975-10.005-.975-14.256-18.539-3.01-21.378-3.01-28.735,1.189-28.735,1.189" transform="translate(-125.259 -14.283)"/>
          <path id="Trazado_116740" data-name="Trazado 116740" d="M579.017,129.087v23.594a7.846,7.846,0,0,1-6.681,7.756c-1.911.291-4.293.57-7.22.785a31.372,31.372,0,0,1-7.311-.292,7.841,7.841,0,0,1-6.589-7.744V125.522Z" transform="translate(-130.153 -29.638)" fill="#f5b0a6"/>
          <path id="Trazado_116741" data-name="Trazado 116741" d="M578.588,129.087v7.54c-.105.024-.164.035-.164.035s-2.658,8.148-13.525,8.264a13.261,13.261,0,0,1-12.87-8.229V125.522Z" transform="translate(-130.345 -29.638)" fill="#f18a8b"/>
          <path id="Trazado_116742" data-name="Trazado 116742" d="M545.573,103.86a8.783,8.783,0,1,1-8.784-8.768,8.776,8.776,0,0,1,8.784,8.768" transform="translate(-124.672 -22.453)" fill="#f5b0a6"/>
          <path id="Trazado_116743" data-name="Trazado 116743" d="M542.444,108.576a.528.528,0,0,1-.357-.137l-5.95-5.362a.532.532,0,1,1,.713-.79l5.951,5.362a.532.532,0,0,1-.357.927" transform="translate(-126.551 -24.119)" fill="#f18a8b"/>
          <path id="Trazado_116744" data-name="Trazado 116744" d="M605.775,103.86a8.783,8.783,0,1,1-8.784-8.768,8.776,8.776,0,0,1,8.784,8.768" transform="translate(-138.887 -22.453)" fill="#f5b0a6"/>
          <path id="Trazado_116745" data-name="Trazado 116745" d="M595.38,109.658a.527.527,0,0,0,.357-.137l5.951-5.362a.532.532,0,0,0-.714-.79l-5.951,5.362a.532.532,0,0,0,.357.927" transform="translate(-140.455 -24.375)" fill="#f18a8b"/>
          <path id="Trazado_116746" data-name="Trazado 116746" d="M549.841,63.216l-8.975,13.37v35.181a4.8,4.8,0,0,0,2.023,3.893s10.064,10.247,20.45,10.808c10.386-.561,20.45-10.808,20.45-10.808a4.8,4.8,0,0,0,2.023-3.893V76.586l-7.58-8.107Z" transform="translate(-127.709 -14.927)" fill="#f5b0a6"/>
          <path id="Trazado_116747" data-name="Trazado 116747" d="M572.883,111.766H567.4a.545.545,0,1,1,0-1.09h4.874l-1.529-14.8a.546.546,0,0,1,1.086-.112l1.591,15.4a.545.545,0,0,1-.543.6" transform="translate(-133.846 -22.496)" fill="#cc6d72"/>
          <path id="Trazado_116748" data-name="Trazado 116748" d="M557.634,89.263c-.037,2.067-6.886,3.416-7.235,1.529-.578-3.133,7.294-4.8,7.235-1.529" transform="translate(-129.953 -20.656)"/>
          <path id="Trazado_116749" data-name="Trazado 116749" d="M588.35,90.647c-.95,1.65-7.074-.3-6.514-1.973.927-2.784,8.018-.64,6.514,1.973" transform="translate(-137.374 -20.629)"/>
          <g id="Grupo_81117" data-name="Grupo 81117" transform="translate(414.57 81.806)" opacity="0.5">
            <g id="Grupo_81116" data-name="Grupo 81116">
              <g id="Grupo_81115" data-name="Grupo 81115" clip-path="url(#clip-path-7)">
                <path id="Trazado_116750" data-name="Trazado 116750" d="M556.938,114.191a7.112,7.112,0,1,1-7.112-7.1,7.105,7.105,0,0,1,7.112,7.1" transform="translate(-542.715 -107.092)" fill="#f18a8b"/>
              </g>
            </g>
          </g>
          <g id="Grupo_81120" data-name="Grupo 81120" transform="translate(442.45 81.2)" opacity="0.5">
            <g id="Grupo_81119" data-name="Grupo 81119">
              <g id="Grupo_81118" data-name="Grupo 81118" clip-path="url(#clip-path-8)">
                <path id="Trazado_116751" data-name="Trazado 116751" d="M593.436,113.4a7.112,7.112,0,1,1-7.112-7.1,7.105,7.105,0,0,1,7.112,7.1" transform="translate(-579.213 -106.299)" fill="#f18a8b"/>
              </g>
            </g>
          </g>
          <path id="Trazado_116752" data-name="Trazado 116752" d="M560.245,103.37c-.034,1.432-.738,2.577-1.573,2.557s-1.486-1.2-1.453-2.628.738-2.577,1.573-2.557,1.487,1.2,1.453,2.628" transform="translate(-131.57 -23.787)"/>
          <path id="Trazado_116753" data-name="Trazado 116753" d="M583.967,102.061c-.034,1.432-.738,2.577-1.573,2.557s-1.486-1.2-1.453-2.628.738-2.577,1.573-2.557,1.486,1.2,1.453,2.628" transform="translate(-137.171 -23.478)"/>
          <path id="Trazado_116754" data-name="Trazado 116754" d="M570.44,128.379a7.454,7.454,0,0,1-4.615-1.677.545.545,0,0,1,.736-.805,6.074,6.074,0,0,0,7.536.186.545.545,0,1,1,.608.905,7.577,7.577,0,0,1-4.266,1.39" transform="translate(-133.56 -29.693)" fill="#cc6d72"/>
          <path id="Trazado_116755" data-name="Trazado 116755" d="M587.207,61.816a20.055,20.055,0,0,0-6.445-8.572,9.55,9.55,0,0,0-3.33-1.692c-.613-.16-2.3-.642-2.883-.3a5.2,5.2,0,0,0,2.517-3.812c-.063.545-4.546-.177-4.99-.277-1.678-.37-3.3-.929-4.948-1.424a38.207,38.207,0,0,0-6.6-1.833,19.758,19.758,0,0,0-12.853,3.108,13.083,13.083,0,0,0-4.032,4.073,6.84,6.84,0,0,0-1.086,2.642c-.025.248.2,1.87.62,1.861a11.471,11.471,0,0,0-6.815,2.313,9.111,9.111,0,0,0-3.293,5.816c-.386,2.889.651,5.7,1.288,8.48a30.942,30.942,0,0,1,.422,7.858c-.007.2,2.6-.4,2.762-.4V74.475a15.142,15.142,0,0,1,15.339-14.938H568.1a15.6,15.6,0,0,1,12.044,5.687,15.388,15.388,0,0,1,3.2,8.1,21.954,21.954,0,0,1-.021,3.982c-.044.6-.123,1.2-.167,1.8a9.507,9.507,0,0,0,.284,1.7c.119.985.155,1.971.2,2.96l2.682-1.595c.069-1.515-.1-3.041.073-4.544a16.163,16.163,0,0,1,1.393-4.847c1.512-3.288.684-7.727-.587-10.966" transform="translate(-125.849 -10.339)"/>
          <path id="Trazado_116756" data-name="Trazado 116756" d="M586.258,76.752a12.953,12.953,0,0,0-.9-3.712c-.389-1.093-.354-2.309-.742-3.444a12.426,12.426,0,0,0-3.718-5.374c-5.143-4.408-12.788-5.2-19.341-5.2-25.479,0-25.651,15.964-25.651,15.964.29,1.85-1.59,3.929-1.3,5.78a22.569,22.569,0,0,0,.177,2.656A4.3,4.3,0,0,1,534.7,85.1l4.1.618a6.442,6.442,0,0,1,2-3.683c.869-.628,1.742-1.247,2.6-1.891a5.828,5.828,0,0,0,2.017-2.1,13.508,13.508,0,0,0,.7-3.3,10.292,10.292,0,0,0,1.542,1.173,18.032,18.032,0,0,0,1.76,1.2,22.3,22.3,0,0,0,3.851,1.758,18.879,18.879,0,0,0,9.5,1.025,17.122,17.122,0,0,0,4.99-1.923c2.153-1.183,3.9-2.6,6.482-2.765,2.137-.134,5.5.428,6.2,2.746.645,2.135-.347,4.7,1.066,6.623.285.389.659.707.981,1.068a7.21,7.21,0,0,1,1.6,4.508c-.037-.752.869-1.8,1.121-2.516.375-1.061,1.563-.807,1.735-1.914.384-2.474-.527-6.475-.685-8.973" transform="translate(-126.224 -13.936)"/>
          <path id="Trazado_116757" data-name="Trazado 116757" d="M542.919,85.851s-2.661,6.021-1.6,7.881-2.75-2.214-2.75-2.214-1.685-6.11-.887-6.907,4.524-4.427,4.524-4.427Z" transform="translate(-126.907 -18.933)"/>
        </g>
      </g>
    </g>
  </g>
</svg>
